# xmcd
#
# Track frame offsets:
#   150
#   3852
#   22831
#   32990
#   46668
#   60212
#   67179
#   76113
#   91274
#   111966
#   121772
#   132237
#   143732
#   161199
#   171967
#   195774
#   213574
#   228439
#   242488
#   246252
#   258780
#   268620
#   277895
#   291953
#
# Disc length: 4069 seconds
#
# Revision: 0
# Processed by: cddbd v1.5.1PL0 Copyright (c) Steve Scherf et al.
# Submitted via: uFREEDB ActiveX Control 1.5
#
DISCID=3e0fe318
DTITLE=Planet Hemp - aa
DYEAR=2000
DGENRE=a
TTITLE0=Intro
TTITLE1=Não Compre, Plante!
TTITLE2=Legalize Já
TTITLE3=Raprockandrollpsicodeliahardcoreragga
TTITLE4=Queimando Tudo
TTITLE5=Hc3
TTITLE6=Procedência C.d
TTITLE7=Fazendo a Cabeça
TTITLE8=Stab
TTITLE9=Dig Dig Dig (hempa)
TTITLE10=Phunky Buddha
TTITLE11=Hip Hop Rio
TTITLE12=A Culpa é de Quem
TTITLE13=Se Liga
TTITLE14=Zerovinteum
TTITLE15=Contexto
TTITLE16=Mantenha o Respeito
TTITLE17=Ex-Quadrilha da Fumaça
TTITLE18=Deisdazseis
TTITLE19=100% Hard Core
TTITLE20=Mary Jane
TTITLE21=Nega do Cabelo Duro
TTITLE22=Porcos Fardados
TTITLE23=Quem tem Seda
EXTD=
EXTT0=
EXTT1=
EXTT2=
EXTT3=
EXTT4=
EXTT5=
EXTT6=
EXTT7=
EXTT8=
EXTT9=
EXTT10=
EXTT11=
EXTT12=
EXTT13=
EXTT14=
EXTT15=
EXTT16=
EXTT17=
EXTT18=
EXTT19=
EXTT20=
EXTT21=
EXTT22=
EXTT23=
PLAYORDER=
